<svg xmlns="http://www.w3.org/2000/svg" width="1260" height="722" viewBox="8 0 1260 722" role="img" aria-label="Customer Journey Signals preview">
<defs>
<marker id="arrowhead" markerWidth="10" markerHeight="8" refX="9" refY="4" orient="auto" markerUnits="strokeWidth">
<path d="M0,0 L10,4 L0,8 Z" fill="context-stroke"/>
</marker>
</defs>
<rect x="8" y="0" width="1260" height="722" fill="#F5F0E8"/>
<text x="70" y="90" fill="#1A1A1A" font-family="Inter, Arial, sans-serif" font-size="36" font-weight="700" text-anchor="start"><tspan x="70" dy="0">Customer Journey Signals</tspan></text>
<text x="74" y="123" fill="#6B5248" font-family="Inter, Arial, sans-serif" font-size="17" font-weight="500" text-anchor="start"><tspan x="74" dy="0">A warm journey board connecting user moments to measurable product signals.</tspan></text>
<rect x="44" y="36" width="1188" height="650" rx="0" fill="none" stroke="#F4B1A3" stroke-width="2"/>
<rect x="94" y="234" width="1000" height="86" rx="6.88" fill="#F4B1A3" stroke="#F4B1A3" stroke-width="0"/>
<ellipse cx="215" cy="379" rx="13" ry="13" fill="#E85D5D" stroke="#E85D5D" stroke-width="0"/>
<rect x="132" y="196" width="184" height="122" rx="9.76" fill="#FFFFFF" stroke="#1A1A1A" stroke-width="2"/>
<text x="224" y="239.25" fill="#1A1A1A" font-family="Inter, Arial, sans-serif" font-size="22" font-weight="500" text-anchor="middle"><tspan x="224" dy="0">Discover</tspan></text>
<text x="224" y="277" fill="#6B5248" font-family="Inter, Arial, sans-serif" font-size="16" font-weight="500" text-anchor="middle"><tspan x="224" dy="0">source</tspan><tspan x="224" dy="20">intent</tspan></text>
<path d="M 316 260 L 386 346" fill="none" stroke="#E85D5D" stroke-width="3" stroke-linecap="round" stroke-linejoin="round" marker-end="url(#arrowhead)"/>
<ellipse cx="469" cy="487" rx="13" ry="13" fill="#E85D5D" stroke="#E85D5D" stroke-width="0"/>
<rect x="386" y="304" width="184" height="122" rx="9.76" fill="#FFFFFF" stroke="#1A1A1A" stroke-width="2"/>
<text x="478" y="347.25" fill="#1A1A1A" font-family="Inter, Arial, sans-serif" font-size="22" font-weight="500" text-anchor="middle"><tspan x="478" dy="0">Activate</tspan></text>
<text x="478" y="385" fill="#6B5248" font-family="Inter, Arial, sans-serif" font-size="16" font-weight="500" text-anchor="middle"><tspan x="478" dy="0">aha</tspan><tspan x="478" dy="20">setup</tspan></text>
<path d="M 570 368 L 640 282" fill="none" stroke="#E85D5D" stroke-width="3" stroke-linecap="round" stroke-linejoin="round" marker-end="url(#arrowhead)"/>
<ellipse cx="723" cy="379" rx="13" ry="13" fill="#E85D5D" stroke="#E85D5D" stroke-width="0"/>
<rect x="640" y="196" width="184" height="122" rx="9.76" fill="#FFFFFF" stroke="#1A1A1A" stroke-width="2"/>
<text x="732" y="239.25" fill="#1A1A1A" font-family="Inter, Arial, sans-serif" font-size="22" font-weight="500" text-anchor="middle"><tspan x="732" dy="0">Adopt</tspan></text>
<text x="732" y="277" fill="#6B5248" font-family="Inter, Arial, sans-serif" font-size="16" font-weight="500" text-anchor="middle"><tspan x="732" dy="0">habit</tspan><tspan x="732" dy="20">value</tspan></text>
<path d="M 824 260 L 894 346" fill="none" stroke="#E85D5D" stroke-width="3" stroke-linecap="round" stroke-linejoin="round" marker-end="url(#arrowhead)"/>
<ellipse cx="977" cy="487" rx="13" ry="13" fill="#E85D5D" stroke="#E85D5D" stroke-width="0"/>
<rect x="894" y="304" width="184" height="122" rx="9.76" fill="#FFFFFF" stroke="#1A1A1A" stroke-width="2"/>
<text x="986" y="347.25" fill="#1A1A1A" font-family="Inter, Arial, sans-serif" font-size="22" font-weight="500" text-anchor="middle"><tspan x="986" dy="0">Expand</tspan></text>
<text x="986" y="385" fill="#6B5248" font-family="Inter, Arial, sans-serif" font-size="16" font-weight="500" text-anchor="middle"><tspan x="986" dy="0">invite</tspan><tspan x="986" dy="20">upgrade</tspan></text>
<rect x="176" y="530" width="828" height="58" rx="0" fill="#1A1A1A" stroke="#1A1A1A" stroke-width="0"/>
<text x="590" y="564.375" fill="#FFFFFF" font-family="Inter, Arial, sans-serif" font-size="17" font-weight="500" text-anchor="middle"><tspan x="590" dy="0">Each stage owns one human moment and one metric, never a wall of copy.</tspan></text>
</svg>
