<svg xmlns="http://www.w3.org/2000/svg" width="1260" height="722" viewBox="8 0 1260 722" role="img" aria-label="Creator Tool Roadmap preview">
<defs>
<marker id="arrowhead" markerWidth="10" markerHeight="8" refX="9" refY="4" orient="auto" markerUnits="strokeWidth">
<path d="M0,0 L10,4 L0,8 Z" fill="context-stroke"/>
</marker>
</defs>
<rect x="8" y="0" width="1260" height="722" fill="#D0FDE4"/>
<text x="70" y="92" fill="#000000" font-family="Inter, Arial, sans-serif" font-size="38" font-weight="700" text-anchor="start"><tspan x="70" dy="0">Creator Tool Roadmap</tspan></text>
<text x="74" y="123" fill="#000000" font-family="Inter, Arial, sans-serif" font-size="17" font-weight="500" text-anchor="start"><tspan x="74" dy="0">A playful product map with stacked cards, bright chips, and visible depth.</tspan></text>
<rect x="44" y="36" width="1188" height="650" rx="0" fill="none" stroke="#000000" stroke-width="3"/>
<rect x="140" y="202" width="202" height="142" rx="0" fill="#6DD89E" stroke="#6DD89E" stroke-width="0"/>
<rect x="126" y="188" width="202" height="142" rx="11.36" fill="#FFFFFF" stroke="#000000" stroke-width="3"/>
<rect x="150" y="206" width="86" height="34" rx="4" fill="#A7E7FF" stroke="#000000" stroke-width="2"/>
<text x="193" y="227.25" fill="#000000" font-family="Inter, Arial, sans-serif" font-size="14" font-weight="500" text-anchor="middle"><tspan x="193" dy="0">NOW</tspan></text>
<text x="227" y="276" fill="#000000" font-family="Inter, Arial, sans-serif" font-size="24" font-weight="700" text-anchor="middle"><tspan x="227" dy="0">Sketch</tspan><tspan x="227" dy="30">Replay</tspan></text>
<path d="M 334 260 L 372 308" fill="none" stroke="#000000" stroke-width="3" stroke-linecap="round" stroke-linejoin="round" marker-end="url(#arrowhead)"/>
<rect x="384" y="264" width="202" height="142" rx="0" fill="#F888C8" stroke="#F888C8" stroke-width="0"/>
<rect x="370" y="250" width="202" height="142" rx="11.36" fill="#A7E7FF" stroke="#000000" stroke-width="3"/>
<rect x="394" y="268" width="86" height="34" rx="4" fill="#FFFFFF" stroke="#000000" stroke-width="2"/>
<text x="437" y="289.25" fill="#000000" font-family="Inter, Arial, sans-serif" font-size="14" font-weight="500" text-anchor="middle"><tspan x="437" dy="0">NEXT</tspan></text>
<text x="471" y="338" fill="#000000" font-family="Inter, Arial, sans-serif" font-size="24" font-weight="700" text-anchor="middle"><tspan x="471" dy="0">Comments</tspan><tspan x="471" dy="30">Share</tspan></text>
<path d="M 578 322 L 616 274" fill="none" stroke="#000000" stroke-width="3" stroke-linecap="round" stroke-linejoin="round" marker-end="url(#arrowhead)"/>
<rect x="630" y="202" width="202" height="142" rx="0" fill="#6DD89E" stroke="#6DD89E" stroke-width="0"/>
<rect x="616" y="188" width="202" height="142" rx="11.36" fill="#F888C8" stroke="#000000" stroke-width="3"/>
<rect x="640" y="206" width="86" height="34" rx="4" fill="#A7E7FF" stroke="#000000" stroke-width="2"/>
<text x="683" y="227.25" fill="#000000" font-family="Inter, Arial, sans-serif" font-size="14" font-weight="500" text-anchor="middle"><tspan x="683" dy="0">LATER</tspan></text>
<text x="717" y="276" fill="#000000" font-family="Inter, Arial, sans-serif" font-size="24" font-weight="700" text-anchor="middle"><tspan x="717" dy="0">Templates</tspan><tspan x="717" dy="30">Teams</tspan></text>
<path d="M 824 260 L 862 308" fill="none" stroke="#000000" stroke-width="3" stroke-linecap="round" stroke-linejoin="round" marker-end="url(#arrowhead)"/>
<rect x="874" y="264" width="202" height="142" rx="0" fill="#F888C8" stroke="#F888C8" stroke-width="0"/>
<rect x="860" y="250" width="202" height="142" rx="11.36" fill="#FFFFFF" stroke="#000000" stroke-width="3"/>
<rect x="884" y="268" width="86" height="34" rx="4" fill="#FFFFFF" stroke="#000000" stroke-width="2"/>
<text x="927" y="289.25" fill="#000000" font-family="Inter, Arial, sans-serif" font-size="14" font-weight="500" text-anchor="middle"><tspan x="927" dy="0">SCALE</tspan></text>
<text x="961" y="338" fill="#000000" font-family="Inter, Arial, sans-serif" font-size="24" font-weight="700" text-anchor="middle"><tspan x="961" dy="0">Agents</tspan><tspan x="961" dy="30">Gallery</tspan></text>
<rect x="174" y="536" width="826" height="54" rx="4.32" fill="#A7E7FF" stroke="#000000" stroke-width="3"/>
<text x="587" y="568.375" fill="#000000" font-family="Inter, Arial, sans-serif" font-size="17" font-weight="500" text-anchor="middle"><tspan x="587" dy="0">Manual edits stay first-class. Agents generate the draft, humans keep control.</tspan></text>
</svg>
