<svg xmlns="http://www.w3.org/2000/svg" width="1260" height="722" viewBox="8 0 1260 722" role="img" aria-label="Multi-Agent Message Bus preview">
<defs>
<marker id="arrowhead" markerWidth="10" markerHeight="8" refX="9" refY="4" orient="auto" markerUnits="strokeWidth">
<path d="M0,0 L10,4 L0,8 Z" fill="context-stroke"/>
</marker>
</defs>
<rect x="8" y="0" width="1260" height="722" fill="#F8FBFF"/>
<text x="70" y="88" fill="#163B68" font-family="Inter, Arial, sans-serif" font-size="34" font-weight="700" text-anchor="start"><tspan x="70" dy="0">Multi-Agent Message Bus</tspan></text>
<text x="72" y="121" fill="#5B708A" font-family="Inter, Arial, sans-serif" font-size="17" font-weight="500" text-anchor="start"><tspan x="72" dy="0">A formal blueprint for coordinating specialist agents through shared events.</tspan></text>
<rect x="44" y="36" width="1188" height="650" rx="0" fill="none" stroke="#DBEAFE" stroke-width="2"/>
<rect x="154" y="338" width="900" height="64" rx="0" fill="#0B63CE" stroke="#0B63CE" stroke-width="0"/>
<text x="600" y="376.75" fill="#FFFFFF" font-family="Inter, Arial, sans-serif" font-size="18" font-weight="500" text-anchor="middle"><tspan x="600" dy="0">EVENT BACKBONE · requests · tool results · validation facts · memory writes</tspan></text>
<rect x="122" y="196" width="168" height="104" rx="0" fill="#FFFFFF" stroke="#163B68" stroke-width="2"/>
<text x="206" y="232.5" fill="#163B68" font-family="Inter, Arial, sans-serif" font-size="20" font-weight="500" text-anchor="middle"><tspan x="206" dy="0">Planner</tspan></text>
<text x="206" y="266.25" fill="#5B708A" font-family="Inter, Arial, sans-serif" font-size="15" font-weight="500" text-anchor="middle"><tspan x="206" dy="0">goals</tspan><tspan x="206" dy="18.75">routes</tspan></text>
<path d="M 206 300 L 206 300 L 206 338 L 206 338" fill="none" stroke="#0B63CE" stroke-width="2" stroke-linecap="round" stroke-linejoin="round" marker-end="url(#arrowhead)"/>
<rect x="382" y="196" width="168" height="104" rx="0" fill="#FFFFFF" stroke="#163B68" stroke-width="2"/>
<text x="466" y="232.5" fill="#163B68" font-family="Inter, Arial, sans-serif" font-size="20" font-weight="500" text-anchor="middle"><tspan x="466" dy="0">Worker A</tspan></text>
<text x="466" y="266.25" fill="#5B708A" font-family="Inter, Arial, sans-serif" font-size="15" font-weight="500" text-anchor="middle"><tspan x="466" dy="0">code</tspan><tspan x="466" dy="18.75">tools</tspan></text>
<path d="M 466 300 L 466 300 L 466 338 L 466 338" fill="none" stroke="#0B63CE" stroke-width="2" stroke-linecap="round" stroke-linejoin="round" marker-end="url(#arrowhead)"/>
<rect x="642" y="196" width="168" height="104" rx="0" fill="#FFFFFF" stroke="#163B68" stroke-width="2"/>
<text x="726" y="232.5" fill="#163B68" font-family="Inter, Arial, sans-serif" font-size="20" font-weight="500" text-anchor="middle"><tspan x="726" dy="0">Verifier</tspan></text>
<text x="726" y="266.25" fill="#5B708A" font-family="Inter, Arial, sans-serif" font-size="15" font-weight="500" text-anchor="middle"><tspan x="726" dy="0">checks</tspan><tspan x="726" dy="18.75">diffs</tspan></text>
<path d="M 726 300 L 726 300 L 726 338 L 726 338" fill="none" stroke="#0B63CE" stroke-width="2" stroke-linecap="round" stroke-linejoin="round" marker-end="url(#arrowhead)"/>
<rect x="902" y="196" width="168" height="104" rx="0" fill="#FFFFFF" stroke="#163B68" stroke-width="2"/>
<text x="986" y="232.5" fill="#163B68" font-family="Inter, Arial, sans-serif" font-size="20" font-weight="500" text-anchor="middle"><tspan x="986" dy="0">Memory</tspan></text>
<text x="986" y="266.25" fill="#5B708A" font-family="Inter, Arial, sans-serif" font-size="15" font-weight="500" text-anchor="middle"><tspan x="986" dy="0">facts</tspan><tspan x="986" dy="18.75">state</tspan></text>
<path d="M 986 300 L 986 300 L 986 338 L 986 338" fill="none" stroke="#0B63CE" stroke-width="2" stroke-linecap="round" stroke-linejoin="round" marker-end="url(#arrowhead)"/>
<rect x="212" y="470" width="190" height="72" rx="0" fill="#FFFFFF" stroke="#163B68" stroke-width="2"/>
<text x="307" y="512.75" fill="#163B68" font-family="Inter, Arial, sans-serif" font-size="18" font-weight="500" text-anchor="middle"><tspan x="307" dy="0">Scene File</tspan></text>
<path d="M 307 470 L 307 470 L 307 402 L 307 402" fill="none" stroke="#0B63CE" stroke-width="2" stroke-linecap="round" stroke-linejoin="round" marker-end="url(#arrowhead)"/>
<rect x="522" y="500" width="190" height="72" rx="0" fill="#DBEAFE" stroke="#163B68" stroke-width="2"/>
<text x="617" y="542.75" fill="#163B68" font-family="Inter, Arial, sans-serif" font-size="18" font-weight="500" text-anchor="middle"><tspan x="617" dy="0">Browser</tspan></text>
<path d="M 617 500 L 617 500 L 617 432 L 617 432" fill="none" stroke="#0B63CE" stroke-width="2" stroke-linecap="round" stroke-linejoin="round" marker-end="url(#arrowhead)"/>
<rect x="832" y="470" width="190" height="72" rx="0" fill="#FFFFFF" stroke="#163B68" stroke-width="2"/>
<text x="927" y="512.75" fill="#163B68" font-family="Inter, Arial, sans-serif" font-size="18" font-weight="500" text-anchor="middle"><tspan x="927" dy="0">Export</tspan></text>
<path d="M 927 470 L 927 470 L 927 402 L 927 402" fill="none" stroke="#0B63CE" stroke-width="2" stroke-linecap="round" stroke-linejoin="round" marker-end="url(#arrowhead)"/>
</svg>
