<svg xmlns="http://www.w3.org/2000/svg" width="1260" height="722" viewBox="8 0 1260 722" role="img" aria-label="Research Synthesis Wall preview">
<defs>
<marker id="arrowhead" markerWidth="10" markerHeight="8" refX="9" refY="4" orient="auto" markerUnits="strokeWidth">
<path d="M0,0 L10,4 L0,8 Z" fill="context-stroke"/>
</marker>
</defs>
<rect x="8" y="0" width="1260" height="722" fill="#FFFFFF"/>
<text x="70" y="90" fill="#171717" font-family="Inter, Arial, sans-serif" font-size="36" font-weight="700" text-anchor="start"><tspan x="70" dy="0">Research Synthesis Wall</tspan></text>
<text x="74" y="123" fill="#5E4A88" font-family="Inter, Arial, sans-serif" font-size="17" font-weight="500" text-anchor="start"><tspan x="74" dy="0">A bright clustering board for turning interview notes into decisions.</tspan></text>
<rect x="44" y="36" width="1188" height="650" rx="0" fill="none" stroke="#CFEE30" stroke-width="2"/>
<rect x="104" y="184" width="246" height="260" rx="0" fill="none" stroke="#5E4A88" stroke-width="2"/>
<text x="226" y="225" fill="#171717" font-family="Inter, Arial, sans-serif" font-size="24" font-weight="700" text-anchor="middle"><tspan x="226" dy="0">Notes</tspan></text>
<rect x="138" y="264" width="154" height="38" rx="0" fill="#5E4A88" stroke="#5E4A88" stroke-width="0"/>
<rect x="130" y="256" width="154" height="38" rx="4" fill="#F8F4FF" stroke="#171717" stroke-width="2"/>
<text x="207" y="279.25" fill="#171717" font-family="Inter, Arial, sans-serif" font-size="14" font-weight="500" text-anchor="middle"><tspan x="207" dy="0">slow setup</tspan></text>
<rect x="180" y="312" width="154" height="38" rx="0" fill="#CFEE30" stroke="#CFEE30" stroke-width="0"/>
<rect x="172" y="304" width="154" height="38" rx="4" fill="#F8F4FF" stroke="#171717" stroke-width="2"/>
<text x="249" y="327.25" fill="#171717" font-family="Inter, Arial, sans-serif" font-size="14" font-weight="500" text-anchor="middle"><tspan x="249" dy="0">unclear export</tspan></text>
<rect x="138" y="360" width="154" height="38" rx="0" fill="#5E4A88" stroke="#5E4A88" stroke-width="0"/>
<rect x="130" y="352" width="154" height="38" rx="4" fill="#F8F4FF" stroke="#171717" stroke-width="2"/>
<text x="207" y="375.25" fill="#171717" font-family="Inter, Arial, sans-serif" font-size="14" font-weight="500" text-anchor="middle"><tspan x="207" dy="0">likes replay</tspan></text>
<rect x="414" y="212" width="246" height="260" rx="0" fill="none" stroke="#5E4A88" stroke-width="2"/>
<text x="536" y="253" fill="#171717" font-family="Inter, Arial, sans-serif" font-size="24" font-weight="700" text-anchor="middle"><tspan x="536" dy="0">Themes</tspan></text>
<rect x="448" y="292" width="154" height="38" rx="0" fill="#5E4A88" stroke="#5E4A88" stroke-width="0"/>
<rect x="440" y="284" width="154" height="38" rx="4" fill="#C5A1FF" stroke="#171717" stroke-width="2"/>
<text x="517" y="307.25" fill="#171717" font-family="Inter, Arial, sans-serif" font-size="14" font-weight="500" text-anchor="middle"><tspan x="517" dy="0">trust</tspan></text>
<rect x="490" y="340" width="154" height="38" rx="0" fill="#CFEE30" stroke="#CFEE30" stroke-width="0"/>
<rect x="482" y="332" width="154" height="38" rx="4" fill="#C5A1FF" stroke="#171717" stroke-width="2"/>
<text x="559" y="355.25" fill="#171717" font-family="Inter, Arial, sans-serif" font-size="14" font-weight="500" text-anchor="middle"><tspan x="559" dy="0">speed</tspan></text>
<rect x="448" y="388" width="154" height="38" rx="0" fill="#5E4A88" stroke="#5E4A88" stroke-width="0"/>
<rect x="440" y="380" width="154" height="38" rx="4" fill="#C5A1FF" stroke="#171717" stroke-width="2"/>
<text x="517" y="403.25" fill="#171717" font-family="Inter, Arial, sans-serif" font-size="14" font-weight="500" text-anchor="middle"><tspan x="517" dy="0">control</tspan></text>
<rect x="724" y="184" width="246" height="260" rx="0" fill="none" stroke="#5E4A88" stroke-width="2"/>
<text x="846" y="225" fill="#171717" font-family="Inter, Arial, sans-serif" font-size="24" font-weight="700" text-anchor="middle"><tspan x="846" dy="0">Insights</tspan></text>
<rect x="758" y="264" width="154" height="38" rx="0" fill="#5E4A88" stroke="#5E4A88" stroke-width="0"/>
<rect x="750" y="256" width="154" height="38" rx="4" fill="#CFEE30" stroke="#171717" stroke-width="2"/>
<text x="827" y="279.25" fill="#171717" font-family="Inter, Arial, sans-serif" font-size="14" font-weight="500" text-anchor="middle"><tspan x="827" dy="0">editability wins</tspan></text>
<rect x="800" y="312" width="154" height="38" rx="0" fill="#CFEE30" stroke="#CFEE30" stroke-width="0"/>
<rect x="792" y="304" width="154" height="38" rx="4" fill="#CFEE30" stroke="#171717" stroke-width="2"/>
<text x="869" y="327.25" fill="#171717" font-family="Inter, Arial, sans-serif" font-size="14" font-weight="500" text-anchor="middle"><tspan x="869" dy="0">preview matters</tspan></text>
<rect x="758" y="360" width="154" height="38" rx="0" fill="#5E4A88" stroke="#5E4A88" stroke-width="0"/>
<rect x="750" y="352" width="154" height="38" rx="4" fill="#CFEE30" stroke="#171717" stroke-width="2"/>
<text x="827" y="375.25" fill="#171717" font-family="Inter, Arial, sans-serif" font-size="14" font-weight="500" text-anchor="middle"><tspan x="827" dy="0">style rules help</tspan></text>
<path d="M 350 314 L 414 314" fill="none" stroke="#171717" stroke-width="3" stroke-linecap="round" stroke-linejoin="round" marker-end="url(#arrowhead)"/>
<path d="M 660 314 L 724 314" fill="none" stroke="#171717" stroke-width="3" stroke-linecap="round" stroke-linejoin="round" marker-end="url(#arrowhead)"/>
<rect x="300" y="522" width="610" height="54" rx="4.32" fill="#CFEE30" stroke="#171717" stroke-width="2"/>
<text x="605" y="554.375" fill="#171717" font-family="Inter, Arial, sans-serif" font-size="17" font-weight="500" text-anchor="middle"><tspan x="605" dy="0">Decision: ship design systems before adding more providers.</tspan></text>
</svg>
