<svg xmlns="http://www.w3.org/2000/svg" width="1260" height="722" viewBox="8 0 1260 722" role="img" aria-label="Runtime Signal Grid preview">
<defs>
<marker id="arrowhead" markerWidth="10" markerHeight="8" refX="9" refY="4" orient="auto" markerUnits="strokeWidth">
<path d="M0,0 L10,4 L0,8 Z" fill="context-stroke"/>
</marker>
</defs>
<rect x="8" y="0" width="1260" height="722" fill="#051423"/>
<text x="70" y="90" fill="#D9FBFF" font-family="Inter, Arial, sans-serif" font-size="38" font-weight="700" text-anchor="start"><tspan x="70" dy="0">Runtime Signal Grid</tspan></text>
<text x="72" y="121" fill="#00F2FF" font-family="Inter, Arial, sans-serif" font-size="17" font-weight="500" text-anchor="start"><tspan x="72" dy="0">A high-contrast event map for observability, agent streams, and exception paths.</tspan></text>
<rect x="44" y="36" width="1188" height="650" rx="0" fill="none" stroke="#00F2FF" stroke-width="2"/>
<rect x="84" y="158" width="1040" height="4" rx="0" fill="#00F2FF" stroke="#00F2FF" stroke-width="0"/>
<rect x="112" y="226" width="190" height="136" rx="0" fill="#071B2C" stroke="#00F2FF" stroke-width="2"/>
<rect x="126" y="240" width="162" height="4" rx="0" fill="#00F2FF" stroke="#00F2FF" stroke-width="0"/>
<text x="207" y="288.625" fill="#D9FBFF" font-family="Inter, Arial, sans-serif" font-size="23" font-weight="500" text-anchor="middle"><tspan x="207" dy="0">Prompt</tspan></text>
<text x="207" y="323" fill="#00F2FF" font-family="Inter, Arial, sans-serif" font-size="16" font-weight="500" text-anchor="middle"><tspan x="207" dy="0">intent</tspan><tspan x="207" dy="20">files</tspan></text>
<path d="M 302 294 L 370 294" fill="none" stroke="#00F2FF" stroke-width="3" stroke-linecap="round" stroke-linejoin="round" marker-end="url(#arrowhead)"/>
<rect x="370" y="226" width="190" height="136" rx="0" fill="#071B2C" stroke="#00F2FF" stroke-width="2"/>
<rect x="384" y="240" width="162" height="4" rx="0" fill="#00F2FF" stroke="#00F2FF" stroke-width="0"/>
<text x="465" y="288.625" fill="#D9FBFF" font-family="Inter, Arial, sans-serif" font-size="23" font-weight="500" text-anchor="middle"><tspan x="465" dy="0">Planner</tspan></text>
<text x="465" y="323" fill="#00F2FF" font-family="Inter, Arial, sans-serif" font-size="16" font-weight="500" text-anchor="middle"><tspan x="465" dy="0">route</tspan><tspan x="465" dy="20">budget</tspan></text>
<path d="M 560 294 L 628 294" fill="none" stroke="#FF4FD8" stroke-width="3" stroke-linecap="round" stroke-linejoin="round" marker-end="url(#arrowhead)"/>
<rect x="628" y="226" width="190" height="136" rx="0" fill="#071B2C" stroke="#00F2FF" stroke-width="2"/>
<rect x="642" y="240" width="162" height="4" rx="0" fill="#FF4FD8" stroke="#FF4FD8" stroke-width="0"/>
<text x="723" y="288.625" fill="#D9FBFF" font-family="Inter, Arial, sans-serif" font-size="23" font-weight="500" text-anchor="middle"><tspan x="723" dy="0">Worker</tspan></text>
<text x="723" y="323" fill="#00F2FF" font-family="Inter, Arial, sans-serif" font-size="16" font-weight="500" text-anchor="middle"><tspan x="723" dy="0">tools</tspan><tspan x="723" dy="20">stream</tspan></text>
<path d="M 818 294 L 886 294" fill="none" stroke="#00F2FF" stroke-width="3" stroke-linecap="round" stroke-linejoin="round" marker-end="url(#arrowhead)"/>
<rect x="886" y="226" width="190" height="136" rx="0" fill="#071B2C" stroke="#00F2FF" stroke-width="2"/>
<rect x="900" y="240" width="162" height="4" rx="0" fill="#00F2FF" stroke="#00F2FF" stroke-width="0"/>
<text x="981" y="288.625" fill="#D9FBFF" font-family="Inter, Arial, sans-serif" font-size="23" font-weight="500" text-anchor="middle"><tspan x="981" dy="0">Verifier</tspan></text>
<text x="981" y="323" fill="#00F2FF" font-family="Inter, Arial, sans-serif" font-size="16" font-weight="500" text-anchor="middle"><tspan x="981" dy="0">check</tspan><tspan x="981" dy="20">export</tspan></text>
<rect x="192" y="494" width="220" height="76" rx="0" fill="#071B2C" stroke="#00F2FF" stroke-width="2"/>
<text x="298" y="524.25" fill="#00F2FF" font-family="Inter, Arial, sans-serif" font-size="14" font-weight="500" text-anchor="middle"><tspan x="298" dy="0">latency</tspan></text>
<text x="300" y="558.375" fill="#D9FBFF" font-family="Inter, Arial, sans-serif" font-size="25" font-weight="700" text-anchor="middle"><tspan x="300" dy="0">420ms</tspan></text>
<rect x="472" y="494" width="220" height="76" rx="0" fill="#071B2C" stroke="#FF4FD8" stroke-width="2"/>
<text x="578" y="524.25" fill="#FF4FD8" font-family="Inter, Arial, sans-serif" font-size="14" font-weight="500" text-anchor="middle"><tspan x="578" dy="0">repair</tspan></text>
<text x="580" y="558.375" fill="#D9FBFF" font-family="Inter, Arial, sans-serif" font-size="25" font-weight="700" text-anchor="middle"><tspan x="580" dy="0">2</tspan></text>
<rect x="752" y="494" width="220" height="76" rx="0" fill="#071B2C" stroke="#7CE38B" stroke-width="2"/>
<text x="858" y="524.25" fill="#7CE38B" font-family="Inter, Arial, sans-serif" font-size="14" font-weight="500" text-anchor="middle"><tspan x="858" dy="0">pass</tspan></text>
<text x="860" y="558.375" fill="#D9FBFF" font-family="Inter, Arial, sans-serif" font-size="25" font-weight="700" text-anchor="middle"><tspan x="860" dy="0">94%</tspan></text>
</svg>
